<svg version="1.0" xmlns="http://www.w3.org/2000/svg"
 width="512.000000pt" height="512" viewBox="0 0 512.000000 512.000000"
 preserveAspectRatio="xMidYMid meet">

<g transform="translate(0.000000,512.000000) scale(0.100000,-0.100000)"
fill="#000000" stroke="none">
<path d="M3310 5110 c-240 -33 -469 -125 -661 -266 -64 -47 -1961 -1932 -1981
-1969 -33 -59 -27 -140 14 -198 40 -56 135 -83 205 -56 16 5 450 431 983 963
1010 1008 1004 1002 1182 1086 390 183 872 92 1178 -222 296 -303 377 -776
200 -1156 -85 -180 -58 -152 -1389 -1485 -691 -692 -1283 -1279 -1316 -1304
-131 -99 -263 -143 -429 -143 -125 0 -206 19 -316 72 -69 33 -101 57 -176 132
-75 75 -99 107 -132 176 -23 47 -49 117 -58 155 -20 89 -20 250 1 330 22 85
77 196 129 263 24 31 593 604 1263 1273 1377 1375 1252 1264 1423 1263 76 0
105 -4 143 -22 71 -32 149 -111 183 -185 25 -54 29 -74 29 -152 0 -163 65 -87
-966 -1120 -509 -510 -913 -922 -919 -938 -26 -70 1 -165 58 -206 40 -28 98
-39 152 -28 43 8 88 51 948 910 497 496 923 929 947 962 95 134 136 258 137
420 0 123 -20 214 -72 320 -70 143 -182 255 -325 325 -107 52 -197 73 -320 73
-124 0 -201 -19 -325 -79 l-95 -46 -1239 -1237 c-681 -680 -1264 -1268 -1296
-1308 -77 -96 -132 -198 -174 -324 -166 -499 59 -1041 529 -1274 341 -170 721
-150 1045 55 75 47 233 201 1358 1324 701 699 1303 1307 1338 1351 388 479
418 1150 74 1659 -206 307 -529 520 -892 591 -98 19 -345 28 -438 15z"/>
</g>
</svg>
